<svg viewBox="0 0 461 140" xmlns="http://www.w3.org/2000/svg" role="img" aria-label="Alvex Creative">
  <defs>
    <linearGradient id="ax" x1="0" y1="0.05" x2="1" y2="0.95">
      <stop offset="0" stop-color="#A435F0"/>
      <stop offset=".32" stop-color="#8B45F2"/>
      <stop offset=".60" stop-color="#4F6BF6"/>
      <stop offset="1" stop-color="#1FC8E6"/>
    </linearGradient>
    <linearGradient id="tx" x1="0" y1="0" x2="1" y2="0.4">
      <stop offset="0" stop-color="#3D74F4"/>
      <stop offset="1" stop-color="#19D2EC"/>
    </linearGradient>
  </defs>
  <path d="M26 113 L64 22 L105 113" fill="none" stroke="url(#ax)"
        stroke-width="29" stroke-linecap="round" stroke-linejoin="round"/>
  <path d="M53 59 L53 93 L81 76 Z" fill="url(#tx)"/>
  <g fill="#F4F6FB">
      <path transform="translate(156.0 78.0) scale(0.10400 -0.10400)" d="M297 560Q362 560 410.5 534.5Q459 509 488 471V551H603V0H488V82Q459 43 409.0 17.0Q359 -9 295 -9Q224 -9 165.0 27.5Q106 64 71.5 129.5Q37 195 37 278Q37 361 71.5 425.0Q106 489 165.5 524.5Q225 560 297 560ZM321 461Q277 461 239.0 439.5Q201 418 177.5 376.5Q154 335 154 278Q154 221 177.5 178.0Q201 135 239.5 112.5Q278 90 321 90Q365 90 403.0 112.0Q441 134 464.5 176.5Q488 219 488 276Q488 333 464.5 375.0Q441 417 403.0 439.0Q365 461 321 461Z"/>
      <path transform="translate(226.5 78.0) scale(0.10400 -0.10400)" d="M189 740V0H75V740Z"/>
      <path transform="translate(254.0 78.0) scale(0.10400 -0.10400)" d="M288 102 444 551H565L355 0H219L10 551H132Z"/>
      <path transform="translate(313.9 78.0) scale(0.10400 -0.10400)" d="M576 233H155Q160 167 204.0 127.0Q248 87 312 87Q404 87 442 164H565Q540 88 474.5 39.5Q409 -9 312 -9Q233 -9 170.5 26.5Q108 62 72.5 126.5Q37 191 37 276Q37 361 71.5 425.5Q106 490 168.5 525.0Q231 560 312 560Q390 560 451.0 526.0Q512 492 546.0 430.5Q580 369 580 289Q580 258 576 233ZM461 325Q460 388 416.0 426.0Q372 464 307 464Q248 464 206.0 426.5Q164 389 156 325Z"/>
      <path transform="translate(378.0 78.0) scale(0.10400 -0.10400)" d="M311 279 489 0H360L241 187L129 0H10L188 271L10 551H139L258 364L370 551H489Z"/>
  </g>
  <g fill="#9AA2BD">
      <path transform="translate(157.0 118.0) scale(0.03300 -0.03300)" d="M313 554Q414 554 479.5 504.0Q545 454 564 368H489Q475 427 428.5 460.5Q382 494 313 494Q258 494 214.0 469.0Q170 444 144.5 394.5Q119 345 119 273Q119 201 144.5 151.0Q170 101 214.0 76.0Q258 51 313 51Q382 51 428.5 84.5Q475 118 489 178H564Q545 94 479.0 43.0Q413 -8 313 -8Q236 -8 176.0 26.5Q116 61 82.0 124.5Q48 188 48 273Q48 358 82.0 421.5Q116 485 176.0 519.5Q236 554 313 554Z"/>
      <path transform="translate(197.4 118.0) scale(0.03300 -0.03300)" d="M337 556V483H318Q242 483 196.0 442.0Q150 401 150 305V0H80V546H150V449Q173 500 220.5 528.0Q268 556 337 556Z"/>
      <path transform="translate(229.5 118.0) scale(0.03300 -0.03300)" d="M572 246H119Q122 184 149.0 140.0Q176 96 220.0 73.5Q264 51 316 51Q384 51 430.5 84.0Q477 117 492 173H566Q546 93 480.5 42.5Q415 -8 316 -8Q239 -8 178.0 26.5Q117 61 82.5 124.5Q48 188 48 273Q48 358 82.0 422.0Q116 486 177.0 520.0Q238 554 316 554Q394 554 452.5 520.0Q511 486 542.5 428.5Q574 371 574 301Q574 265 572 246ZM313 494Q235 494 180.0 444.0Q125 394 119 303H503Q504 364 478.5 407.0Q453 450 409.0 472.0Q365 494 313 494Z"/>
      <path transform="translate(270.2 118.0) scale(0.03300 -0.03300)" d="M309 554Q387 554 443.5 518.0Q500 482 525 426V546H595V0H525V121Q499 65 442.5 28.5Q386 -8 308 -8Q234 -8 174.5 27.0Q115 62 81.5 126.0Q48 190 48 274Q48 358 81.5 421.5Q115 485 174.5 519.5Q234 554 309 554ZM322 493Q264 493 218.0 467.0Q172 441 145.5 391.5Q119 342 119 274Q119 207 145.5 156.5Q172 106 218.0 79.5Q264 53 322 53Q378 53 424.5 80.0Q471 107 498.0 157.0Q525 207 525 273Q525 339 498.0 389.0Q471 439 424.5 466.0Q378 493 322 493Z"/>
      <path transform="translate(312.6 118.0) scale(0.03300 -0.03300)" d="M171 487V148Q171 98 190.0 79.0Q209 60 257 60H321V0H246Q172 0 136.0 34.5Q100 69 100 148V487H24V546H100V683H171V546H321V487Z"/>
      <path transform="translate(344.5 118.0) scale(0.03300 -0.03300)" d="M64 701Q64 723 79.0 737.5Q94 752 115 752Q136 752 151.0 737.5Q166 723 166 701Q166 679 151.0 664.0Q136 649 115 649Q94 649 79.0 664.0Q64 679 64 701ZM150 546V0H80V546Z"/>
      <path transform="translate(372.2 118.0) scale(0.03300 -0.03300)" d="M274 68 458 546H532L313 0H234L15 546H90Z"/>
      <path transform="translate(410.4 118.0) scale(0.03300 -0.03300)" d="M572 246H119Q122 184 149.0 140.0Q176 96 220.0 73.5Q264 51 316 51Q384 51 430.5 84.0Q477 117 492 173H566Q546 93 480.5 42.5Q415 -8 316 -8Q239 -8 178.0 26.5Q117 61 82.5 124.5Q48 188 48 273Q48 358 82.0 422.0Q116 486 177.0 520.0Q238 554 316 554Q394 554 452.5 520.0Q511 486 542.5 428.5Q574 371 574 301Q574 265 572 246ZM313 494Q235 494 180.0 444.0Q125 394 119 303H503Q504 364 478.5 407.0Q453 450 409.0 472.0Q365 494 313 494Z"/>
  </g>
</svg>
